<svg width="56" height="55" viewBox="0 0 56 55" fill="none" xmlns="http://www.w3.org/2000/svg">
<g id="icons8-instagram 1">
<path id="Vector" d="M20.2637 8.4668C14.2014 8.4668 9.21948 13.4014 9.21948 19.4207V34.7668C9.21948 40.7795 14.1947 45.7207 20.2637 45.7207H35.7363C41.7986 45.7207 46.7805 40.7861 46.7805 34.7668V19.4207C46.7805 13.408 41.8052 8.4668 35.7363 8.4668H20.2637ZM20.2637 11.8535H35.7363C39.9579 11.8535 43.3658 15.2336 43.3658 19.4207V34.7668C43.3658 38.9539 39.9579 42.334 35.7363 42.334H20.2637C16.0421 42.334 12.6341 38.9539 12.6341 34.7668V19.4207C12.6341 15.2336 16.0421 11.8535 20.2637 11.8535ZM38.0838 15.5577C37.2235 15.5577 36.5366 16.2391 36.5366 17.0923C36.5366 17.9456 37.2235 18.627 38.0838 18.627C38.9441 18.627 39.6311 17.9456 39.6311 17.0923C39.6311 16.2391 38.9441 15.5577 38.0838 15.5577ZM28 16.9336C22.3645 16.9336 17.7561 21.5043 17.7561 27.0938C17.7561 32.6832 22.3645 37.2539 28 37.2539C33.6355 37.2539 38.2439 32.6832 38.2439 27.0938C38.2439 21.5043 33.6355 16.9336 28 16.9336ZM28 20.3203C31.7948 20.3203 34.8292 23.33 34.8292 27.0938C34.8292 30.8575 31.7948 33.8672 28 33.8672C24.2052 33.8672 21.1707 30.8575 21.1707 27.0938C21.1707 23.33 24.2052 20.3203 28 20.3203Z" fill="white"/>
</g>
</svg>
