<svg width="43" height="43" viewBox="0 0 43 43" fill="none" xmlns="http://www.w3.org/2000/svg">
<g id="icons8-telegram-logo 1">
<path id="Vector" d="M39.7024 6.16772C39.0622 5.62923 38.0565 5.55219 37.0168 5.96621H37.0151C35.9215 6.40141 6.06057 19.105 4.84496 19.624C4.62386 19.7002 2.69289 20.4148 2.89179 22.0066C3.06935 23.4417 4.6213 24.036 4.81081 24.1046L12.4024 26.6828C12.9061 28.3456 14.7628 34.4807 15.1734 35.7914C15.4295 36.6084 15.8469 37.682 16.5785 37.903C17.2204 38.1485 17.859 37.9241 18.2722 37.6024L22.9135 33.3326L30.4061 39.1281L30.5845 39.234C31.0933 39.4575 31.5807 39.5692 32.0459 39.5692C32.4053 39.5692 32.7502 39.5023 33.0797 39.3686C34.2023 38.9114 34.6513 37.8505 34.6983 37.7303L40.2948 8.87794C40.6363 7.33699 40.1617 6.55296 39.7024 6.16772ZM19.0976 27.714L16.5367 34.4875L13.9757 26.0207L33.6098 11.6271L19.0976 27.714Z" fill="white"/>
</g>
</svg>
